<svg width="1653" height="942" viewBox="0 0 1653 942" fill="none" xmlns="http://www.w3.org/2000/svg">
<path d="M168.086 55.4982C173.496 67.1463 185.172 74.5976 198.015 74.5976H369.253C382.69 74.5976 394.785 66.4503 399.834 53.998L413.084 21.3223C418.133 8.87001 430.228 0.722656 443.665 0.722656H1620C1638.22 0.722656 1653 15.4973 1653 33.7227V849.94C1653 868.165 1638.22 882.94 1620 882.94H1183.37C1172.67 882.94 1162.64 888.122 1156.45 896.843L1134.49 927.799C1128.3 936.52 1118.27 941.702 1107.57 941.702H33.2793C15.0539 941.702 0.279297 926.928 0.279297 908.702V74.5976L0.279297 33.7227C0.279297 15.4973 15.0539 0.722656 33.2793 0.722656H121.587C134.43 0.722656 146.106 8.17396 151.516 19.8221L168.086 55.4982Z" fill="url(#paint0_linear_1085_5126)"/>
<defs>
<linearGradient id="paint0_linear_1085_5126" x1="84.2236" y1="91.7147" x2="2109.67" y2="1752.74" gradientUnits="userSpaceOnUse">
<stop stop-color="white"/>
<stop offset="0.153387" stop-color="#0075FF"/>
<stop offset="0.806615" stop-color="#004699" stop-opacity="0.25"/>
</linearGradient>
</defs>
</svg>
