<svg width="348" height="742" viewBox="0 0 348 742" fill="none" xmlns="http://www.w3.org/2000/svg">
<path d="M49.3305 23.1752C50.9698 26.705 54.5082 28.9629 58.4 28.9629H127.483C131.555 28.9629 135.22 26.4941 136.75 22.7206L143.166 6.8982C144.696 3.12477 148.361 0.655884 152.433 0.655884H337.933C343.456 0.655884 347.933 5.13304 347.933 10.6559V700.394C347.933 705.917 343.456 710.394 337.933 710.394H63.3415C59.5784 710.394 56.1339 712.506 54.428 715.86L44.0116 736.342C42.3057 739.696 38.8612 741.809 35.0981 741.809H10.0716C4.54874 741.809 0.0715942 737.332 0.0715942 731.809L0.0715942 28.9629V10.6559C0.0715942 5.13304 4.54875 0.655884 10.0716 0.655884H32.49C36.3819 0.655884 39.9202 2.91386 41.5595 6.44358L49.3305 23.1752Z" fill="url(#paint0_linear_1085_5216)"/>
<defs>
<linearGradient id="paint0_linear_1085_5216" x1="32.2369" y1="35.5218" x2="808.338" y2="671.984" gradientUnits="userSpaceOnUse">
<stop stop-color="white"/>
<stop offset="0.153387" stop-color="#0075FF"/>
<stop offset="0.806615" stop-color="#004699" stop-opacity="0.25"/>
</linearGradient>
</defs>
</svg>
