<svg width="487" height="427" viewBox="0 0 487 427" fill="none" xmlns="http://www.w3.org/2000/svg">
<path d="M107.645 81.135C108.105 78.8814 111.325 78.8814 111.786 81.135L114.989 96.8097C115.9 101.263 119.38 104.744 123.834 105.654L139.509 108.858C141.762 109.319 141.762 112.538 139.509 112.999L123.834 116.203C119.38 117.113 115.9 120.594 114.989 125.047L111.786 140.722C111.325 142.976 108.105 142.976 107.645 140.722L104.441 125.047C103.531 120.594 100.05 117.113 95.5963 116.203L79.9216 112.999C77.6681 112.538 77.6681 109.319 79.9216 108.858L95.5963 105.654C100.05 104.744 103.531 101.263 104.441 96.8097L107.645 81.135Z" fill="white"/>
<path d="M425.138 329.839C425.433 328.394 427.499 328.394 427.794 329.839L429.849 339.895C430.433 342.752 432.666 344.985 435.523 345.569L445.579 347.624C447.025 347.92 447.025 349.985 445.579 350.281L435.523 352.336C432.666 352.92 430.433 355.153 429.849 358.01L427.794 368.065C427.499 369.511 425.433 369.511 425.138 368.065L423.082 358.01C422.498 355.153 420.265 352.92 417.408 352.336L407.353 350.281C405.907 349.985 405.907 347.92 407.353 347.624L417.408 345.569C420.265 344.985 422.498 342.752 423.082 339.895L425.138 329.839Z" fill="white"/>
<path d="M86.6504 302.055C86.8617 301.021 88.3385 301.021 88.5498 302.055L90.0192 309.244C90.4368 311.287 92.0332 312.883 94.0759 313.301L101.265 314.77C102.299 314.982 102.299 316.459 101.265 316.67L94.0759 318.139C92.0332 318.557 90.4368 320.153 90.0192 322.196L88.5498 329.385C88.3385 330.419 86.8617 330.419 86.6504 329.385L85.1809 322.196C84.7634 320.153 83.167 318.557 81.1243 318.139L73.9349 316.67C72.9013 316.459 72.9013 314.982 73.9349 314.77L81.1243 313.301C83.167 312.883 84.7634 311.287 85.1809 309.244L86.6504 302.055Z" fill="white"/>
<path fill-rule="evenodd" clip-rule="evenodd" d="M405.792 198.027C412.521 197.166 418.011 191.45 420.326 181.469C424.428 163.777 418.836 138.218 405.565 125.818C398.394 117.563 391.036 115.864 384.976 118.474C378.892 119.802 369.919 125.547 363.351 129.752C361.874 130.697 360.519 131.565 359.346 132.287C363.757 151.665 373.363 190.884 376.495 192.735C380.411 195.049 403.299 199.419 405.713 198.104C405.741 198.088 405.768 198.063 405.792 198.027Z" fill="white"/>
<path d="M405.792 198.027L405.729 197.531L405.507 197.56L405.38 197.743L405.792 198.027ZM405.565 125.818L405.188 126.146L405.205 126.166L405.224 126.184L405.565 125.818ZM384.976 118.474L385.083 118.963L385.13 118.953L385.174 118.934L384.976 118.474ZM363.351 129.752L363.081 129.331L363.351 129.752ZM359.346 132.287L359.084 131.861L358.779 132.048L358.859 132.398L359.346 132.287ZM376.495 192.735L376.241 193.166L376.241 193.166L376.495 192.735ZM405.713 198.104L405.474 197.665L405.474 197.665L405.713 198.104ZM419.839 181.356C417.551 191.221 412.173 196.706 405.729 197.531L405.856 198.523C412.869 197.626 418.472 191.679 420.813 181.582L419.839 181.356ZM405.224 126.184C411.767 132.297 416.446 141.688 418.975 151.78C421.504 161.87 421.869 172.601 419.839 181.356L420.813 181.582C422.885 172.645 422.505 161.75 419.945 151.537C417.387 141.327 412.635 131.739 405.906 125.453L405.224 126.184ZM385.174 118.934C390.971 116.437 398.108 117.997 405.188 126.146L405.943 125.491C398.679 117.129 391.101 115.292 384.778 118.015L385.174 118.934ZM384.87 117.986C381.751 118.667 377.933 120.466 374.102 122.597C370.261 124.734 366.363 127.23 363.081 129.331L363.62 130.173C366.907 128.069 370.779 125.59 374.588 123.471C378.407 121.347 382.117 119.61 385.083 118.963L384.87 117.986ZM363.081 129.331C361.604 130.277 360.253 131.142 359.084 131.861L359.608 132.712C360.786 131.988 362.145 131.118 363.62 130.173L363.081 129.331ZM358.859 132.398C361.065 142.09 364.571 156.746 367.917 169.213C369.59 175.446 371.226 181.138 372.64 185.392C373.347 187.518 374.002 189.295 374.583 190.604C374.873 191.258 375.149 191.806 375.41 192.227C375.658 192.629 375.933 192.983 376.241 193.166L376.75 192.305C376.667 192.256 376.499 192.087 376.26 191.701C376.034 191.335 375.778 190.832 375.497 190.198C374.936 188.933 374.292 187.191 373.589 185.077C372.184 180.851 370.555 175.18 368.883 168.954C365.541 156.504 362.038 141.861 359.834 132.176L358.859 132.398ZM376.241 193.166C377.29 193.786 379.525 194.508 382.247 195.219C384.995 195.937 388.31 196.662 391.575 197.272C394.84 197.882 398.064 198.38 400.629 198.643C401.91 198.774 403.037 198.847 403.926 198.846C404.37 198.845 404.765 198.825 405.095 198.781C405.414 198.739 405.719 198.67 405.952 198.543L405.474 197.665C405.405 197.702 405.248 197.753 404.965 197.79C404.693 197.826 404.344 197.845 403.924 197.846C403.084 197.847 401.996 197.777 400.731 197.648C398.203 197.389 395.008 196.896 391.759 196.289C388.511 195.682 385.22 194.962 382.5 194.251C379.753 193.534 377.658 192.842 376.75 192.305L376.241 193.166ZM405.952 198.543C406.069 198.479 406.15 198.389 406.204 198.311L405.38 197.743C405.385 197.736 405.413 197.698 405.474 197.665L405.952 198.543Z" fill="black"/>
<path d="M388.234 195.812C410.036 166.415 385.115 126.067 369.776 125.768L359.478 132.226C371.199 130.669 376.889 139.317 381.93 147.082C386.97 154.847 388.915 171.537 387.173 179.443C385.78 185.768 379.361 190.69 376.325 192.36C380.163 194.711 383.837 195.247 388.234 195.812Z" fill="black" stroke="black"/>
<path d="M388.555 273.342C388.555 260.99 375.886 212.373 369.552 189.609C373.827 187.233 382.221 173.615 388.555 174.605C386.655 196.934 417.654 254.735 430.719 273.342C416.664 278.489 388.555 285.694 388.555 273.342Z" fill="white" stroke="black" stroke-width="2"/>
<path fill-rule="evenodd" clip-rule="evenodd" d="M375.232 192.494C380.811 192.158 385.409 187.657 387.296 179.516C390.495 165.722 384.7 146.703 374.353 137.036C368.007 131.107 361.422 130.073 356.541 133.343C328.25 137.968 273.513 124.681 228.985 113.871C214.728 110.41 201.517 107.204 190.556 104.92C172.468 121.207 225.043 245.016 250.302 291.278C255.725 286.372 262.478 279.526 270.212 271.689C298.024 243.499 338.502 202.474 375.268 192.655L375.232 192.494Z" fill="white"/>
<path d="M375.232 192.494L375.202 191.995L374.617 192.03L374.744 192.602L375.232 192.494ZM374.353 137.036L374.012 137.401L374.012 137.401L374.353 137.036ZM356.541 133.343L356.622 133.836L356.729 133.819L356.819 133.758L356.541 133.343ZM228.985 113.871L229.103 113.385L228.985 113.871ZM190.556 104.92L190.658 104.431L190.41 104.379L190.222 104.548L190.556 104.92ZM250.302 291.278L249.863 291.518L250.167 292.075L250.637 291.649L250.302 291.278ZM270.212 271.689L270.567 272.04L270.212 271.689ZM375.268 192.655L375.397 193.138L375.86 193.014L375.756 192.547L375.268 192.655ZM386.809 179.403C384.95 187.421 380.477 191.677 375.202 191.995L375.262 192.993C381.145 192.639 385.868 187.892 387.784 179.629L386.809 179.403ZM374.012 137.401C379.106 142.161 383.102 149.248 385.426 156.874C387.749 164.5 388.384 172.611 386.809 179.403L387.784 179.629C389.407 172.626 388.744 164.331 386.383 156.582C384.021 148.833 379.947 141.578 374.694 136.671L374.012 137.401ZM356.819 133.758C361.435 130.666 367.762 131.562 374.012 137.401L374.694 136.671C368.252 130.652 361.41 129.48 356.263 132.927L356.819 133.758ZM356.461 132.849C342.408 135.147 321.727 132.998 298.94 128.903C276.171 124.811 251.37 118.791 229.103 113.385L228.867 114.357C251.128 119.761 275.959 125.789 298.763 129.887C321.55 133.982 342.383 136.164 356.622 133.836L356.461 132.849ZM229.103 113.385C214.848 109.925 201.629 106.716 190.658 104.431L190.454 105.41C201.406 107.691 214.607 110.896 228.867 114.357L229.103 113.385ZM190.222 104.548C187.806 106.724 186.641 110.615 186.395 115.682C186.148 120.773 186.824 127.17 188.218 134.497C191.005 149.156 196.681 167.634 203.704 187.029C217.752 225.821 237.22 268.362 249.863 291.518L250.74 291.039C238.125 267.932 218.676 225.438 204.644 186.688C197.628 167.312 191.973 148.892 189.2 134.31C187.813 127.017 187.152 120.708 187.394 115.73C187.636 110.728 188.785 107.188 190.891 105.292L190.222 104.548ZM250.637 291.649C256.073 286.731 262.838 279.874 270.567 272.04L269.856 271.338C262.119 279.179 255.376 286.013 249.966 290.908L250.637 291.649ZM270.567 272.04C284.476 257.943 301.531 240.657 319.7 225.669C337.878 210.673 357.121 198.019 375.397 193.138L375.139 192.172C356.649 197.11 337.27 209.878 319.064 224.897C300.849 239.923 283.759 257.245 269.856 271.338L270.567 272.04ZM375.756 192.547L375.72 192.385L374.744 192.602L374.78 192.763L375.756 192.547Z" fill="black"/>
<path d="M276.09 265.193C271.067 270.864 260.698 282.313 259.404 282.744C258.109 283.176 217.257 165.697 196.993 106.904C209.943 109.354 236.489 114.983 239.677 118.004C239.696 118.023 239.714 118.041 239.732 118.059C264.762 142.768 305.588 205.103 276.09 265.193Z" fill="black"/>
<path d="M238.712 117.064C239.049 117.389 239.389 117.72 239.732 118.059M239.732 118.059C264.762 142.768 305.588 205.103 276.09 265.193C271.067 270.864 260.698 282.313 259.404 282.744C258.109 283.176 217.257 165.697 196.993 106.904C210.021 109.369 236.809 115.051 239.732 118.059Z" stroke="black" stroke-width="2"/>
<path d="M269.107 257.946C258.935 301.813 224.016 312.453 191.111 281.711C158.207 250.969 139.778 190.486 149.949 146.619C160.12 102.751 195.04 92.1114 227.945 122.854C260.849 153.596 279.278 214.079 269.107 257.946Z" fill="white" stroke="black"/>
<path d="M300.815 293.438C284.965 361.797 230.549 378.377 179.274 330.471C127.998 282.565 99.28 188.314 115.13 119.955C130.98 51.5962 185.396 35.0158 236.672 82.9218C287.947 130.828 316.665 225.079 300.815 293.438Z" stroke="white" stroke-width="3"/>
<ellipse cx="61.0945" cy="61.0945" rx="61.0945" ry="61.0945" transform="matrix(0.730708 0.68269 -0.225873 0.974157 178.685 101.058)" fill="#0075FF"/>
<path d="M197.911 384.239C172.913 492.051 87.0907 518.201 6.2216 442.646C-74.6475 367.091 -119.94 218.443 -94.9423 110.631C-69.9445 2.81915 15.8776 -23.3305 96.7467 52.2242C177.616 127.779 222.908 276.427 197.911 384.239Z" stroke="white" stroke-width="3"/>
<mask id="mask0_959_1745" style="mask-type:alpha" maskUnits="userSpaceOnUse" x="162" y="129" width="95" height="146">
<ellipse cx="61.0945" cy="61.0945" rx="61.0945" ry="61.0945" transform="matrix(0.730708 0.68269 -0.225873 0.974157 178.685 101.058)" fill="#989797"/>
</mask>
<g mask="url(#mask0_959_1745)">
<circle cx="50.6208" cy="50.6208" r="50.6208" transform="matrix(0.730708 0.68269 -0.225873 0.974157 213.048 113.458)" fill="black"/>
</g>
<path d="M307.106 59.8757C307.308 58.8904 308.715 58.8904 308.917 59.8757L309.473 62.5962C310.383 67.0499 313.864 70.5304 318.317 71.4407L321.038 71.9968C322.023 72.1982 322.023 73.606 321.038 73.8074L318.317 74.3634C313.864 75.2737 310.383 78.7542 309.473 83.2079L308.917 85.9285C308.715 86.9138 307.308 86.9138 307.106 85.9285L306.55 83.2079C305.64 78.7542 302.159 75.2737 297.706 74.3634L294.985 73.8074C294 73.606 294 72.1982 294.985 71.9968L297.706 71.4407C302.159 70.5304 305.64 67.0499 306.55 62.5962L307.106 59.8757Z" fill="black"/>
<path d="M248.547 335.926C248.748 334.941 250.156 334.941 250.358 335.926L250.914 338.647C251.824 343.1 255.305 346.581 259.758 347.491L262.479 348.047C263.464 348.248 263.464 349.656 262.479 349.858L259.758 350.414C255.305 351.324 251.824 354.805 250.914 359.258L250.358 361.979C250.156 362.964 248.748 362.964 248.547 361.979L247.991 359.258C247.081 354.805 243.6 351.324 239.147 350.414L236.426 349.858C235.441 349.656 235.441 348.248 236.426 348.047L239.147 347.491C243.6 346.581 247.081 343.1 247.991 338.647L248.547 335.926Z" fill="black"/>
</svg>
