<svg width="424" height="427" viewBox="0 0 424 427" fill="none" xmlns="http://www.w3.org/2000/svg">
<path d="M51.9649 80.9944C52.4255 78.7408 55.6454 78.7408 56.106 80.9944L59.3098 96.669C60.2201 101.123 63.7006 104.603 68.1543 105.514L83.829 108.717C86.0825 109.178 86.0825 112.398 83.829 112.858L68.1543 116.062C63.7006 116.973 60.2201 120.453 59.3098 124.907L56.106 140.581C55.6454 142.835 52.4255 142.835 51.9649 140.581L48.7611 124.907C47.8508 120.453 44.3703 116.973 39.9166 116.062L24.2419 112.858C21.9884 112.398 21.9884 109.178 24.2419 108.717L39.9166 105.514C44.3703 104.603 47.8508 101.123 48.7611 96.669L51.9649 80.9944Z" fill="white"/>
<path d="M369.458 329.699C369.753 328.253 371.819 328.253 372.114 329.699L374.17 339.754C374.754 342.611 376.986 344.844 379.844 345.428L389.899 347.483C391.345 347.779 391.345 349.845 389.899 350.14L379.844 352.195C376.986 352.779 374.754 355.012 374.17 357.869L372.114 367.925C371.819 369.37 369.753 369.37 369.458 367.925L367.403 357.869C366.819 355.012 364.586 352.779 361.729 352.195L351.673 350.14C350.227 349.845 350.227 347.779 351.673 347.483L361.729 345.428C364.586 344.844 366.819 342.611 367.403 339.754L369.458 329.699Z" fill="white"/>
<path d="M30.9707 301.914C31.182 300.881 32.6588 300.881 32.8701 301.914L34.3396 309.104C34.7571 311.147 36.3535 312.743 38.3962 313.16L45.5856 314.63C46.6192 314.841 46.6192 316.318 45.5856 316.529L38.3962 317.999C36.3535 318.416 34.7571 320.013 34.3396 322.055L32.8701 329.245C32.6588 330.278 31.182 330.278 30.9707 329.245L29.5013 322.055C29.0837 320.013 27.4874 318.416 25.4446 317.999L18.2552 316.529C17.2216 316.318 17.2216 314.841 18.2552 314.63L25.4446 313.16C27.4874 312.743 29.0837 311.147 29.5013 309.104L30.9707 301.914Z" fill="white"/>
<path fill-rule="evenodd" clip-rule="evenodd" d="M350.112 197.887C356.841 197.025 362.332 191.309 364.646 181.329C368.748 163.636 363.157 138.077 349.885 125.678C342.714 117.422 335.356 115.724 329.296 118.334C323.212 119.662 314.239 125.406 307.671 129.611C306.195 130.557 304.84 131.424 303.666 132.146C308.078 151.524 317.683 190.744 320.816 192.595C324.731 194.909 347.619 199.278 350.033 197.963C350.061 197.948 350.088 197.922 350.112 197.887Z" fill="white"/>
<path d="M364.646 181.329L364.159 181.216L364.646 181.329ZM350.112 197.887L350.049 197.391L349.828 197.419L349.701 197.603L350.112 197.887ZM349.885 125.678L349.508 126.006L349.525 126.025L349.544 126.043L349.885 125.678ZM329.296 118.334L329.403 118.822L329.45 118.812L329.494 118.793L329.296 118.334ZM307.671 129.611L307.402 129.19L307.671 129.611ZM303.666 132.146L303.404 131.72L303.099 131.908L303.179 132.257L303.666 132.146ZM320.816 192.595L320.561 193.025L320.816 192.595ZM350.033 197.963L349.794 197.524L349.794 197.524L350.033 197.963ZM364.159 181.216C361.872 191.08 356.494 196.566 350.049 197.391L350.176 198.383C357.189 197.485 362.792 191.538 365.133 181.442L364.159 181.216ZM349.544 126.043C356.087 132.156 360.766 141.547 363.296 151.64C365.824 161.729 366.189 172.46 364.159 181.216L365.133 181.442C367.205 172.504 366.825 161.61 364.266 151.397C361.707 141.187 356.955 131.599 350.227 125.312L349.544 126.043ZM329.494 118.793C335.291 116.296 342.428 117.856 349.508 126.006L350.263 125.35C342.999 116.989 335.422 115.151 329.099 117.875L329.494 118.793ZM329.19 117.845C326.071 118.526 322.253 120.326 318.422 122.457C314.581 124.593 310.683 127.089 307.402 129.19L307.941 130.032C311.227 127.929 315.099 125.45 318.908 123.331C322.727 121.206 326.437 119.47 329.403 118.822L329.19 117.845ZM307.402 129.19C305.924 130.136 304.573 131.001 303.404 131.72L303.928 132.572C305.106 131.847 306.465 130.977 307.941 130.032L307.402 129.19ZM303.179 132.257C305.385 141.95 308.891 156.606 312.238 169.073C313.911 175.305 315.546 180.998 316.96 185.251C317.667 187.377 318.323 189.154 318.903 190.463C319.193 191.117 319.47 191.666 319.73 192.087C319.978 192.488 320.253 192.843 320.561 193.025L321.07 192.164C320.987 192.115 320.819 191.947 320.581 191.561C320.354 191.194 320.098 190.692 319.817 190.058C319.256 188.792 318.612 187.05 317.909 184.936C316.504 180.71 314.875 175.04 313.203 168.813C309.861 156.363 306.359 141.72 304.154 132.035L303.179 132.257ZM320.561 193.025C321.611 193.645 323.845 194.367 326.567 195.078C329.315 195.796 332.63 196.521 335.896 197.131C339.161 197.741 342.385 198.239 344.949 198.502C346.23 198.633 347.357 198.707 348.246 198.705C348.691 198.704 349.085 198.684 349.416 198.641C349.734 198.599 350.039 198.529 350.272 198.402L349.794 197.524C349.726 197.561 349.569 197.612 349.285 197.649C349.013 197.685 348.665 197.704 348.244 197.705C347.404 197.707 346.316 197.637 345.051 197.507C342.523 197.248 339.328 196.755 336.08 196.148C332.832 195.541 329.54 194.822 326.82 194.111C324.074 193.393 321.979 192.701 321.07 192.164L320.561 193.025ZM350.272 198.402C350.39 198.338 350.47 198.249 350.524 198.17L349.701 197.603C349.706 197.596 349.733 197.557 349.794 197.524L350.272 198.402Z" fill="black"/>
<path d="M332.554 195.671C354.357 166.274 329.435 125.927 314.097 125.627L303.798 132.086C315.519 130.528 321.21 139.177 326.25 146.941C331.29 154.706 333.236 171.396 331.494 179.302C330.1 185.627 323.681 190.549 320.645 192.22C324.483 194.571 328.158 195.107 332.554 195.671Z" fill="black" stroke="black"/>
<path d="M332.875 273.201C332.876 260.849 320.207 212.232 313.872 189.468C318.148 187.092 326.541 173.475 332.875 174.464C330.975 196.793 361.974 254.594 375.039 273.201C360.984 278.348 332.875 285.553 332.875 273.201Z" fill="white" stroke="black" stroke-width="2"/>
<path fill-rule="evenodd" clip-rule="evenodd" d="M319.553 192.353C325.131 192.018 329.729 187.516 331.617 179.375C334.815 165.581 329.02 146.562 318.673 136.895C312.327 130.966 305.743 129.932 300.861 133.202C272.57 137.827 217.834 124.54 173.305 113.731C159.048 110.27 145.838 107.063 134.877 104.779C116.789 121.066 169.364 244.875 194.622 291.138C200.045 286.231 206.799 279.386 214.532 271.548C242.345 243.359 282.822 202.333 319.588 192.514L319.553 192.353Z" fill="white"/>
<path d="M319.553 192.353L319.523 191.854L318.937 191.889L319.064 192.461L319.553 192.353ZM318.673 136.895L318.332 137.261L318.332 137.261L318.673 136.895ZM300.861 133.202L300.942 133.696L301.049 133.678L301.14 133.618L300.861 133.202ZM173.305 113.731L173.423 113.245L173.305 113.731ZM134.877 104.779L134.979 104.29L134.73 104.238L134.542 104.408L134.877 104.779ZM194.622 291.138L194.183 291.377L194.487 291.934L194.957 291.508L194.622 291.138ZM214.532 271.548L214.176 271.197L214.532 271.548ZM319.588 192.514L319.717 192.997L320.18 192.874L320.076 192.406L319.588 192.514ZM331.13 179.262C329.271 187.281 324.797 191.537 319.523 191.854L319.583 192.852C325.465 192.498 330.188 187.751 332.104 179.488L331.13 179.262ZM318.332 137.261C323.426 142.02 327.423 149.108 329.746 156.733C332.07 164.359 332.704 172.471 331.13 179.262L332.104 179.488C333.728 172.485 333.064 164.191 330.703 156.442C328.342 148.693 324.267 141.438 319.015 136.53L318.332 137.261ZM301.14 133.618C305.755 130.526 312.082 131.422 318.332 137.261L319.015 136.53C312.572 130.511 305.73 129.339 300.583 132.787L301.14 133.618ZM300.781 132.709C286.728 135.006 266.047 132.857 243.261 128.762C220.492 124.67 195.691 118.65 173.423 113.245L173.187 114.217C195.448 119.62 220.28 125.648 243.084 129.746C265.87 133.841 286.703 136.023 300.942 133.696L300.781 132.709ZM173.423 113.245C159.169 109.785 145.949 106.576 134.979 104.29L134.775 105.269C145.726 107.55 158.928 110.755 173.187 114.217L173.423 113.245ZM134.542 104.408C132.126 106.583 130.961 110.475 130.715 115.541C130.468 120.632 131.145 127.029 132.538 134.357C135.325 149.015 141.001 167.493 148.024 186.888C162.072 225.68 181.541 268.222 194.183 291.377L195.061 290.898C182.445 267.791 162.997 225.297 148.965 186.547C141.948 167.171 136.293 148.751 133.52 134.17C132.134 126.877 131.473 120.568 131.714 115.59C131.957 110.588 133.105 107.047 135.211 105.151L134.542 104.408ZM194.957 291.508C200.393 286.59 207.159 279.733 214.888 271.899L214.176 271.197C206.439 279.039 199.696 285.872 194.286 290.767L194.957 291.508ZM214.888 271.899C228.797 257.802 245.852 240.516 264.021 225.528C282.198 210.533 301.441 197.878 319.717 192.997L319.459 192.031C300.969 196.969 281.591 209.737 263.384 224.757C245.17 239.783 228.08 257.105 214.176 271.197L214.888 271.899ZM320.076 192.406L320.041 192.245L319.064 192.461L319.1 192.623L320.076 192.406Z" fill="black"/>
<path d="M220.41 265.052C215.387 270.723 205.018 282.172 203.724 282.604C202.43 283.035 161.577 165.556 141.313 106.763C154.264 109.213 180.809 114.842 183.997 117.864C184.016 117.882 184.034 117.9 184.052 117.918C209.083 142.628 249.908 204.963 220.41 265.052Z" fill="black"/>
<path d="M183.032 116.924C183.369 117.248 183.709 117.579 184.052 117.918M184.052 117.918C209.083 142.628 249.908 204.963 220.41 265.052C215.387 270.723 205.018 282.172 203.724 282.604C202.43 283.035 161.577 165.556 141.313 106.763C154.341 109.228 181.129 114.91 184.052 117.918Z" stroke="black" stroke-width="2"/>
<path d="M213.427 257.805C203.256 301.672 168.336 312.312 135.431 281.57C102.527 250.828 84.0981 190.345 94.2693 146.478C104.441 102.611 139.36 91.9708 172.265 122.713C205.169 153.455 223.598 213.938 213.427 257.805Z" fill="white" stroke="black"/>
<path d="M245.136 293.297C229.286 361.656 174.87 378.237 123.594 330.331C72.3184 282.425 43.6003 188.173 59.4503 119.815C75.3004 51.4556 129.716 34.8752 180.992 82.7812C232.268 130.687 260.986 224.939 245.136 293.297Z" stroke="white" stroke-width="3"/>
<ellipse cx="61.0945" cy="61.0945" rx="61.0945" ry="61.0945" transform="matrix(0.730708 0.68269 -0.225873 0.974157 123.005 100.917)" fill="#0075FF"/>
<mask id="mask0_1_3161" style="mask-type:alpha" maskUnits="userSpaceOnUse" x="107" y="129" width="94" height="146">
<ellipse cx="61.0945" cy="61.0945" rx="61.0945" ry="61.0945" transform="matrix(0.730708 0.68269 -0.225873 0.974157 123.005 100.917)" fill="#989797"/>
</mask>
<g mask="url(#mask0_1_3161)">
<circle cx="50.6208" cy="50.6208" r="50.6208" transform="matrix(0.730708 0.68269 -0.225873 0.974157 157.369 113.317)" fill="black"/>
</g>
<path d="M251.426 59.7351C251.628 58.7498 253.036 58.7498 253.237 59.7351L253.793 62.4556C254.703 66.9093 258.184 70.3898 262.638 71.3001L265.358 71.8562C266.343 72.0575 266.343 73.4654 265.358 73.6667L262.638 74.2228C258.184 75.1331 254.703 78.6136 253.793 83.0673L253.237 85.7878C253.036 86.7731 251.628 86.7731 251.426 85.7878L250.87 83.0673C249.96 78.6136 246.48 75.1331 242.026 74.2228L239.305 73.6667C238.32 73.4654 238.32 72.0575 239.305 71.8562L242.026 71.3001C246.48 70.3898 249.96 66.9093 250.87 62.4556L251.426 59.7351Z" fill="black"/>
<path d="M192.867 335.785C193.069 334.8 194.477 334.8 194.678 335.785L195.234 338.506C196.144 342.96 199.625 346.44 204.079 347.35L206.799 347.906C207.784 348.108 207.784 349.516 206.799 349.717L204.079 350.273C199.625 351.183 196.144 354.664 195.234 359.118L194.678 361.838C194.477 362.823 193.069 362.823 192.867 361.838L192.311 359.118C191.401 354.664 187.921 351.183 183.467 350.273L180.746 349.717C179.761 349.516 179.761 348.108 180.746 347.906L183.467 347.35C187.921 346.44 191.401 342.96 192.311 338.506L192.867 335.785Z" fill="black"/>
</svg>
