<svg width="132" height="18" viewBox="0 0 132 18" fill="none" xmlns="http://www.w3.org/2000/svg">
<path d="M114.401 16.1589C113.924 16.1589 113.537 15.772 113.537 15.2948V14.1788C113.537 13.701 113.925 13.3139 114.402 13.3147L126.124 13.3351C126.766 13.3351 127.255 13.1892 127.59 12.8973C127.94 12.5908 128.116 12.102 128.116 11.4307C128.116 10.7594 127.94 10.2778 127.59 9.98594C127.255 9.67949 126.766 9.52626 126.124 9.52626H118.287C116.667 9.52626 115.405 9.13953 114.5 8.36609C113.61 7.57806 113.165 6.42519 113.165 4.90749C113.165 3.38979 113.61 2.24422 114.5 1.47078C115.405 0.682744 116.667 0.288727 118.287 0.288727H129.725C130.202 0.288727 130.589 0.675586 130.589 1.1528V2.26875C130.589 2.74658 130.201 3.1337 129.723 3.13282L118.659 3.11252C118.032 3.11252 117.543 3.25845 117.193 3.55032C116.842 3.82759 116.667 4.27998 116.667 4.90749C116.667 5.535 116.842 5.99469 117.193 6.28655C117.543 6.56383 118.032 6.70246 118.659 6.70246H126.496C128.116 6.70246 129.371 7.10378 130.261 7.90641C131.166 8.69444 131.618 9.8692 131.618 11.4307C131.618 12.9776 131.166 14.1523 130.261 14.9549C129.371 15.7576 128.116 16.1589 126.496 16.1589H114.401Z" fill="white"/>
<path d="M98.1511 16.1588C96.5605 16.1588 95.3054 15.9545 94.3861 15.5459C93.4667 15.1227 92.81 14.4879 92.416 13.6415C92.022 12.7951 91.825 11.7298 91.825 10.4456V1.26218C91.825 0.784961 92.2118 0.398102 92.689 0.398102H94.4633C94.9405 0.398102 95.3273 0.784961 95.3273 1.26218V10.4456C95.3273 11.5546 95.5827 12.3135 96.0935 12.7221C96.6188 13.1161 97.5017 13.3131 98.7421 13.3131H102.967C104.207 13.3131 105.083 13.1161 105.594 12.7221C106.119 12.3135 106.382 11.5546 106.382 10.4456V1.26218C106.382 0.784961 106.769 0.398102 107.246 0.398102H109.02C109.497 0.398102 109.884 0.784961 109.884 1.26218V10.4456C109.884 11.7298 109.687 12.7951 109.293 13.6415C108.899 14.4879 108.242 15.1227 107.323 15.5459C106.404 15.9545 105.149 16.1588 103.558 16.1588H98.1511Z" fill="white"/>
<path d="M70.756 16.0494C70.0438 16.0494 69.6374 15.2361 70.065 14.6665L74.5045 8.75271C74.735 8.4457 74.7352 8.02345 74.5052 7.71613L70.0614 1.78C69.6349 1.21028 70.0414 0.398102 70.7531 0.398102H72.8577C73.1329 0.398102 73.3916 0.52915 73.5543 0.750988L77.7428 6.45895C77.9056 6.68079 78.1643 6.81184 78.4394 6.81184H79.5779C79.8531 6.81184 80.1118 6.68079 80.2745 6.45895L84.463 0.750988C84.6258 0.529149 84.8845 0.398102 85.1596 0.398102H87.2642C87.9759 0.398102 88.3825 1.21028 87.956 1.78L83.5122 7.71613C83.2821 8.02345 83.2824 8.4457 83.5128 8.75271L87.9524 14.6665C88.3799 15.2361 87.9735 16.0494 87.2613 16.0494H85.1381C84.8627 16.0494 84.6039 15.9182 84.4411 15.6961L80.2745 10.0108C80.1118 9.78874 79.8529 9.65752 79.5776 9.65752H78.4397C78.1644 9.65752 77.9056 9.78874 77.7428 10.0108L73.5762 15.6961C73.4135 15.9182 73.1546 16.0494 72.8793 16.0494H70.756Z" fill="white"/>
<path d="M50.5484 16.0494C50.0712 16.0494 49.6843 15.6625 49.6843 15.1853V1.26218C49.6843 0.784961 50.0712 0.398102 50.5484 0.398102H65.9819C66.4591 0.398102 66.846 0.784961 66.846 1.26218V2.37971C66.846 2.85693 66.4591 3.24379 65.9819 3.24379H54.0508C53.5736 3.24379 53.1867 3.63065 53.1867 4.10786V5.83831C53.1867 6.31553 53.5736 6.70239 54.0508 6.70239H64.7123C65.1895 6.70239 65.5764 7.08925 65.5764 7.56646V8.684C65.5764 9.16121 65.1895 9.54807 64.7123 9.54807H54.0508C53.5736 9.54807 53.1867 9.93493 53.1867 10.4121V12.3396C53.1867 12.8168 53.5736 13.2037 54.0508 13.2037H65.9819C66.4591 13.2037 66.846 13.5905 66.846 14.0678V15.1853C66.846 15.6625 66.4591 16.0494 65.9819 16.0494H50.5484Z" fill="white"/>
<path d="M28.2672 16.0494C27.7899 16.0494 27.4031 15.6625 27.4031 15.1853V1.26218C27.4031 0.784961 27.7899 0.398102 28.2672 0.398102H30.5873C30.8189 0.398102 31.0407 0.491009 31.2031 0.655994L40.5457 10.1463C41.088 10.6972 42.0255 10.3132 42.0255 9.54008V1.26218C42.0255 0.784962 42.4124 0.398102 42.8896 0.398102H44.6638C45.141 0.398102 45.5279 0.784961 45.5279 1.26218V15.1853C45.5279 15.6625 45.141 16.0494 44.6638 16.0494H42.3441C42.1123 16.0494 41.8902 15.9562 41.7278 15.7909L32.3859 6.28284C31.8438 5.7311 30.9055 6.11494 30.9055 6.88842V15.1853C30.9055 15.6625 30.5186 16.0494 30.0414 16.0494H28.2672Z" fill="white"/>
<path d="M17.9832 1.21694C17.9832 0.488646 17.1374 0.0870287 16.573 0.547279L13.4123 3.12461C13.2111 3.28871 13.0943 3.53461 13.0943 3.79427V10.3487C13.0943 11.0427 12.3173 11.4535 11.7437 11.0628L8.24686 8.68056C7.67325 8.2898 6.8963 8.70061 6.8963 9.39467V12.4499C6.8963 12.7224 7.02484 12.9789 7.24311 13.142L12.8642 17.3429C13.0136 17.4545 13.1951 17.5148 13.3815 17.5148H17.1191C17.5963 17.5148 17.9832 17.128 17.9832 16.6508V1.21694Z" fill="white"/>
<path d="M0.881592 16.5871C0.881592 17.3154 1.7273 17.717 2.29173 17.2567L5.45243 14.6794C5.65367 14.5153 5.77045 14.2694 5.77045 14.0097V7.45535C5.77045 6.76129 6.5474 6.35047 7.121 6.74123L10.6179 9.12346C11.1915 9.51422 11.9684 9.1034 11.9684 8.40934V5.35413C11.9684 5.08163 11.8399 4.82511 11.6216 4.66198L6.0005 0.461109C5.85115 0.349491 5.6697 0.289179 5.48324 0.289179H1.74567C1.26845 0.289179 0.881592 0.676037 0.881592 1.15325V16.5871Z" fill="white"/>
<path fill-rule="evenodd" clip-rule="evenodd" d="M19.6862 2.06825C20.1157 2.06825 20.4638 1.72007 20.4638 1.29058C20.4638 0.861095 20.1157 0.512924 19.6862 0.512924C19.2567 0.512924 18.9085 0.861095 18.9085 1.29058C18.9085 1.72007 19.2567 2.06825 19.6862 2.06825ZM19.6862 2.18307C20.1791 2.18307 20.5787 1.78349 20.5787 1.29058C20.5787 0.79768 20.1791 0.398102 19.6862 0.398102C19.1933 0.398102 18.7937 0.79768 18.7937 1.29058C18.7937 1.78349 19.1933 2.18307 19.6862 2.18307Z" fill="white"/>
<path d="M20.0862 0.995758H20.2051V1.56987H20.0936V1.18932L19.9222 1.46735H19.8852L19.713 1.18932V1.56987H19.6023V0.995758H19.7204L19.9033 1.29102L20.0862 0.995758Z" fill="white"/>
<path d="M19.5265 0.995758V1.0991H19.3887V1.56987H19.2772V1.0991H19.1394V0.995758H19.5265Z" fill="white"/>
</svg>
